<svg width="768" height="194" viewBox="0 0 768 194" fill="none" xmlns="http://www.w3.org/2000/svg">
<g clip-path="url(#clip0_280_2052)">
<mask id="mask0_280_2052" style="mask-type:luminance" maskUnits="userSpaceOnUse" x="0" y="0" width="768" height="194">
<path d="M767.4 0.399902H0.599976V193.6H767.4V0.399902Z" fill="white"/>
</mask>
<g mask="url(#mask0_280_2052)">
<path d="M530.551 50.6282H563.473C562.551 41.1702 557.018 35.4465 547.642 35.4465C538.267 35.4465 531.934 41.3845 530.52 50.6282M547.735 88.552C529.568 88.552 517.149 75.6047 517.149 56.5663C517.149 37.5279 530.029 24.9478 547.735 24.9478C568.361 24.9478 576.814 40.8029 576.907 57.8518V60.4229H530.275C531.197 71.3807 538.236 77.686 547.735 77.686C554.651 77.686 560.399 75.1149 562.613 69.0545H576.077C572.449 81.2978 561.998 88.552 547.704 88.552M505.744 156.319C504.33 159.931 500.949 162.747 490.989 164.491C482.659 165.991 478.325 168.348 478.325 173.704C478.325 178.479 482.536 181.999 489.575 181.999C497.906 181.999 505.744 176.061 505.744 162.624V156.319ZM518.747 176.49C518.747 181.05 518.993 187.233 519.915 190.386H506.082C505.621 187.937 505.498 185.121 505.498 182.336V180.591H505.375C503.254 186.07 497.752 191.916 486.163 191.916C472.576 191.916 464.83 183.499 464.83 173.949C464.83 156.441 485.456 155.982 494.125 154.574C502.086 153.289 505.375 152.126 505.375 147.106C505.375 142.086 501.041 138.811 493.664 138.811C487.116 138.811 482.413 142.423 482.044 148.514H468.795C469.379 138.597 477.218 128.312 493.418 128.312C513.583 128.312 518.747 140.341 518.747 153.289V176.52V176.49ZM491.543 86.8991L513.583 26.5701H499.289C494.125 42.5476 488.622 58.8925 484.288 73.3702H484.042C479.124 57.6069 473.96 42.4558 468.918 26.5701H454.378C461.756 46.6491 469.041 66.8201 476.419 86.8991H491.543ZM438.916 142.637H401.998V107.039H387.827V190.355H401.998V154.544H438.916V190.355H453.087V107.039H438.916V142.637ZM713.821 154.085C712.899 144.627 707.366 138.903 697.99 138.903C688.614 138.903 682.282 144.871 680.868 154.085H713.79H713.821ZM727.285 161.308V163.879H680.653C681.575 174.837 688.614 181.142 698.113 181.142C705.029 181.142 710.778 178.571 712.991 172.511H726.455C722.828 184.754 712.376 192.008 698.082 192.008C679.915 192.008 667.496 179.061 667.496 160.023C667.496 140.984 680.376 128.404 698.082 128.404C718.708 128.404 727.162 144.259 727.254 161.308M738.505 190.355H752.092V107.039H738.505V190.355ZM767.216 86.8685L740.011 52.3423L765.31 26.5701H749.018L725.102 51.5465V3.61378H711.515V86.9298H725.102V67.5547L730.974 61.6166L750.555 86.9298H767.185L767.216 86.8685ZM564.242 128.373C554.159 128.373 548.319 134.434 546.198 141.566V130.026H532.734V190.355H546.321V159.778C546.321 144.963 552.53 139.484 560.86 139.484C569.191 139.484 572.572 145.667 572.572 155.462V190.355H586.036V152.677C586.036 138.78 579.95 128.404 564.242 128.404M644.288 159.319C644.042 147.871 637.494 139.484 627.074 139.484C616.653 139.484 609.736 148.575 609.736 160.023C609.736 171.47 616.192 180.897 627.074 180.897C638.908 180.897 644.288 171.929 644.288 160.023V159.319ZM643.335 107.039H657.383V190.355H643.335V179.398H643.212C640.753 186.621 634.082 192.131 623.631 192.131C607.462 192.131 596.088 178.816 596.088 160.053C596.088 141.29 607.462 128.435 623.631 128.435C633.959 128.435 641.091 134.495 643.335 141.045V107.101V107.039ZM417.522 77.0739C406.64 77.0739 398.647 71.0134 398.309 59.8107H383.769C384.722 79.645 399.016 88.8581 417.522 88.8581C432.891 88.8581 449.153 81.1448 449.153 64.1265C449.153 47.1083 433.906 42.7619 419.735 38.9052C408.822 35.9974 400.984 32.8448 400.984 25.3763C400.984 16.8672 408.238 13.3472 416.446 13.3472C426.528 13.3472 431.693 18.2446 432.738 28.1617H446.909C445.864 9.94971 433.66 1.56302 416.661 1.56302C401.537 1.56302 386.536 9.49059 386.782 25.4988C387.028 41.8436 401.199 46.741 415.032 50.4752C425.698 53.383 435.074 55.1583 435.074 64.249C435.074 72.8805 426.866 77.0739 417.491 77.0739M601.129 56.2908C601.129 41.4763 607.339 35.9974 615.669 35.9974C624 35.9974 627.381 42.1803 627.381 51.975V86.8685H640.845V49.1896C640.845 35.2934 634.759 24.9172 619.051 24.9172C608.968 24.9172 603.127 30.9777 601.006 38.1094V26.5701H587.542V86.8991H601.129V56.3214V56.2908ZM111.877 59.8413H137.883C137.361 43.3128 125.833 31.8347 108.681 25.4069C111.078 32.0796 112.431 40.3438 112.431 49.9548C112.431 53.1687 112.154 56.352 111.908 59.8413M294.932 83.318C309.134 80.9305 317.987 71.044 317.987 55.8317V3.61378H294.932V83.4098V83.318ZM31.1552 168.501C38.6556 184.785 53.134 193.569 73.4836 193.569C96.2617 193.569 110.463 182.367 115.812 167.154C105.637 171.96 91.9582 174.623 75.0821 174.623C58.206 174.623 43.451 172.756 31.1244 168.501M676.441 78.1451C669.402 78.1451 665.314 75.1149 664.146 68.4423H650.682C652.096 82.9201 663.807 88.5214 676.226 88.5214C689.598 88.5214 701.187 81.5121 701.187 69.5136C701.187 59.8107 693.44 54.8216 682.774 52.4647C672.568 50.1385 665.56 48.4856 665.56 42.6701C665.56 38.3543 670.14 35.2016 675.396 35.2016C680.653 35.2016 686.186 38.0176 687.108 44.6596H699.988C698.574 31.5898 688.737 24.9478 675.611 24.9478C663.193 24.9478 652.403 32.2938 652.403 43.2516C652.403 54.2094 662.117 58.7701 671.861 61.0045C681.606 63.3307 687.569 64.2796 687.569 70.2176C687.569 75.8189 682.19 78.1451 676.441 78.1451ZM26.6057 128.496H0.599976C0.876632 149.31 12.404 161.859 31.1552 168.532C27.6816 160.788 26.0524 151.452 26.0524 140.25C26.0524 136.515 26.0524 132.506 26.6057 128.496ZM98.1676 90.6028L61.987 76.4617C37.0572 66.8507 25.8065 58.8619 25.8065 38.0482C25.8065 33.763 26.6057 29.5085 27.9582 25.7742C13.7565 31.651 5.70275 41.7824 5.70275 56.199C5.70275 75.1455 22.5788 86.0727 45.9102 95.1634L82.0907 109.029C105.945 118.089 118.271 128.771 118.271 153.074C118.271 158.155 117.472 162.961 115.843 167.215C130.844 160.267 138.344 148.789 138.344 134.128C138.344 113.865 122.544 100.244 98.1368 90.6334M108.865 25.5294C102.717 8.66416 89.3145 0.399902 68.9342 0.399902C46.9553 0.399902 33.0303 11.3271 27.9275 25.7436C38.379 21.2136 52.0581 19.071 68.1349 19.071C83.1359 19.071 97.3376 21.2136 108.865 25.4682M173.172 3.61378V55.9235C173.172 71.1358 182.025 80.9917 196.227 83.4098V3.61378H173.172ZM173.172 129.843V190.417H196.227V103.152C182.025 105.54 173.172 115.151 173.172 129.843ZM203.451 83.9301C201.053 83.9301 198.348 83.6547 196.227 83.4098V103.152C198.379 102.877 201.053 102.601 203.451 102.601H287.862C290.259 102.601 292.688 102.877 295.086 103.152V83.4098C292.688 83.6853 290.259 83.9301 287.862 83.9301H203.451ZM295.116 190.417V103.152C309.318 105.54 318.171 115.151 318.171 129.567V190.417H295.116Z" fill="black"/>
</g>
</g>
<defs>
<clipPath id="clip0_280_2052">
<rect width="766.8" height="193.2" fill="white" transform="translate(0.599976 0.399902)"/>
</clipPath>
</defs>
</svg>
